#!OML:ASF X:\für Bonn\!DataBase\2005_08_12_Daniel\c3d\Daniel.ASF
:FULLY-SPECIFIED
:DEGREES
1
root 16.6659 16.6147 0.44098 -733.157 -69.8956 727.769
lowerback 10.1921 -4.2215 -3.45311
upperback 3.17546 -6.18585 -3.78699
thorax -2.44279 -3.12239 -1.24463
lowerneck 3.78978 0.153847 -3.9281
upperneck 6.56982 -0.126108 2.80031
head 1.41308 -0.163499 1.54135
rclavicle -1.98785e-014 -2.38542e-015
rhumerus -46.5267 -1.85149 -89.5855
rradius 28.3646
rwrist 10.0325
rhand -20.8041 10.4172
rfingers 7.12502
rthumb 5.56351 -19.4897
lclavicle -1.98785e-014 -2.38542e-015
lhumerus -40.6946 17.1809 75.8006
lradius 100.003
lwrist 193.57
lhand -11.7807 11.9411
lfingers 7.12502
lthumb 14.2683 41.4309
rfemur -28.9302 -19.7548 10.5748
rtibia 67.843
rfoot -18.2724 8.77874
rtoes -9.93048
lfemur -3.3508 -11.601 -26.8651
ltibia 46.5183
lfoot -37.1147 -3.33214
ltoes -12.5387
2
root 16.5504 16.6247 0.443883 -733.073 -69.8491 727.583
lowerback 10.2 -4.37316 -3.54791
upperback 3.2003 -6.39283 -3.72958
thorax -2.4044 -3.22568 -1.11033
lowerneck 4.03402 0.300227 -4.01541
upperneck 6.60285 0.050182 2.84104
head 1.37598 -0.0811988 1.56895
rclavicle 6.65929e-015 0
rhumerus -46.7515 -2.56329 -88.6828
rradius 27.2754
rwrist 11.3976
rhand -20.6652 10.3618
rfingers 7.12502
rthumb 5.6976 -19.5416
lclavicle 6.65929e-015 0
lhumerus -39.8447 17.0313 75.9146
lradius 100.268
lwrist 193.495
lhand -11.7729 11.8937
lfingers 7.12502
lthumb 14.2758 41.383
rfemur -29.5988 -19.5183 10.6204
rtibia 66.7404
rfoot -18.2188 8.49601
rtoes -9.93024
lfemur -2.44911 -11.671 -26.798
ltibia 45.869
lfoot -37.2124 -3.26869
ltoes -12.5869
3
root 16.4346 16.6339 0.446955 -733.045 -69.7973 727.477
lowerback 10.1906 -4.52683 -3.65446
upperback 3.22442 -6.60328 -3.68416
thorax -2.35609 -3.33103 -0.983467
lowerneck 4.28099 0.444602 -4.05643
upperneck 6.62728 0.226567 2.8392
head 1.33527 0.00171741 1.57421
rclavicle 4.21423e-014 5.56597e-015
rhumerus -46.9583 -3.36882 -87.72
rradius 26.177
rwrist 12.8632
rhand -20.6009 10.2883
rfingers 7.12502
rthumb 5.7597 -19.6135
lclavicle 4.21423e-014 5.56597e-015
lhumerus -38.9574 16.8827 76.0378
lradius 100.474
lwrist 193.41
lhand -11.7457 11.9048
lfingers 7.12502
lthumb 14.3021 41.3923
rfemur -30.2839 -19.2778 10.622
rtibia 65.5861
rfoot -18.2473 8.19104
rtoes -10.4801
lfemur -1.54098 -11.8012 -26.7786
ltibia 45.1857
lfoot -37.3182 -3.15981
ltoes -12.6818
4
root 16.3174 16.643 0.448476 -733.023 -69.7577 727.367
lowerback 10.1879 -4.68175 -3.78398
upperback 3.25282 -6.81708 -3.62128
thorax -2.30103 -3.43822 -0.826079
lowerneck 4.49816 0.59847 -4.11226
upperneck 6.66567 0.415741 2.83866
head 1.30365 0.0907713 1.58235
rclavicle 2.63887e-014 1.11319e-014
rhumerus -47.1881 -4.14565 -86.7302
rradius 25.1223
rwrist 14.2721
rhand -20.5987 10.142
rfingers 7.12502
rthumb 5.76179 -19.7597
lclavicle 2.63887e-014 1.11319e-014
lhumerus -38.0835 16.7834 76.1675
lradius 100.675
lwrist 193.327
lhand -11.7675 12.0219
lfingers 7.12502
lthumb 14.2811 41.5109
rfemur -30.9453 -18.9659 10.6244
rtibia 64.3468
rfoot -18.2608 7.7579
rtoes -11.0748
lfemur -0.604885 -11.9273 -26.7579
ltibia 44.4802
lfoot -37.3992 -3.03234
ltoes -12.7231
5
root 16.1998 16.6498 0.449957 -733.005 -69.7338 727.267
lowerback 10.1652 -4.84319 -3.89349
upperback 3.28998 -7.03676 -3.57389
thorax -2.22869 -3.54909 -0.697814
lowerneck 4.69522 0.758303 -4.14175
upperneck 6.7206 0.613932 2.83388
head 1.2803 0.18478 1.58432
rclavicle 2.56432e-014 -1.51076e-014
rhumerus -47.4236 -4.98685 -85.7225
rradius 24.1205
rwrist 15.739
rhand -20.652 9.95538
rfingers 7.12502
rthumb 5.71037 -19.9477
lclavicle 2.56432e-014 -1.51076e-014
lhumerus -37.2165 16.6891 76.2431
lradius 100.871
lwrist 193.266
lhand -11.8255 12.2067
lfingers 7.12502
lthumb 14.2252 41.6995
rfemur -31.5747 -18.6077 10.6042
rtibia 63.0356
rfoot -18.3098 7.27814
rtoes -11.6914
lfemur 0.330774 -12.087 -26.7603
ltibia 43.7737
lfoot -37.5166 -2.8507
ltoes -12.8265
6
root 16.082 16.6541 0.451442 -733.022 -69.7032 727.206
lowerback 10.1524 -5.00764 -4.01069
upperback 3.31671 -7.26221 -3.52805
thorax -2.17052 -3.66254 -0.565542
lowerneck 4.93622 0.915937 -4.1298
upperneck 6.75027 0.810761 2.78302
head 1.24166 0.278371 1.56327
rclavicle 6.39093e-014 2.62396e-014
rhumerus -47.698 -5.8289 -84.6846
rradius 23.1431
rwrist 17.1674
rhand -20.7794 9.78377
rfingers 7.12502
rthumb 5.58738 -20.1226
lclavicle 6.39093e-014 2.62396e-014
lhumerus -36.3812 16.5948 76.3261
lradius 101.065
lwrist 193.255
lhand -11.8735 12.3971
lfingers 7.12502
lthumb 14.1789 41.8932
rfemur -32.1461 -18.208 10.543
rtibia 61.6506
rfoot -18.2444 6.66083
rtoes -11.9787
lfemur 1.27241 -12.2966 -26.8042
ltibia 43.0679
lfoot -37.6587 -2.61111
ltoes -13.0133
